<?xml version="1.0" encoding="utf-8"?>
<!-- Generator: Adobe Illustrator 28.2.0, SVG Export Plug-In . SVG Version: 6.00 Build 0)  -->
<svg version="1.1" id="Layer_1" xmlns="http://www.w3.org/2000/svg" xmlns:xlink="http://www.w3.org/1999/xlink" x="0px" y="0px"
	 viewBox="0 0 1000 392" style="enable-background:new 0 0 1000 392;" xml:space="preserve">
<style type="text/css">
	.st0{fill:#FF7920;}
	.st1{fill:#231F20;}
</style>
<g>
	<g>
		<g>
			<g>
				<rect x="671.7" y="43.7" class="st0" width="54.9" height="87"/>
			</g>
			<g>
				<polygon class="st0" points="593.4,141.3 564.1,141.3 538.4,141.3 538.4,237.8 726.6,237.8 726.6,188.5 593.4,188.5 				"/>
			</g>
			<g>
				<polygon class="st0" points="963.8,90.6 963.8,43.7 909.2,43.7 909.2,188.5 963.8,188.5 963.8,141.6 1000.2,141.6 1000.2,90.6 
									"/>
			</g>
			<g>
				<path class="st0" d="M897.3,92.6v-49H750.6v95.9v49h8.6h138.1v-49h-92.1c-0.1,0-0.2,0-0.2,0V92.6H897.3z"/>
			</g>
			<g>
				<g>
					<path class="st0" d="M903.2,197c-37.7,0-68.3,30.6-68.3,68.3c0,37.7,30.6,68.3,68.3,68.3c37.7,0,68.3-30.6,68.3-68.3
						C971.5,227.6,941,197,903.2,197z M903.2,285.5c-11.1,0-20.1-9-20.1-20.1c0-11.1,9-20.1,20.1-20.1c11.1,0,20.1,9,20.1,20.1
						C923.4,276.5,914.3,285.5,903.2,285.5z"/>
				</g>
			</g>
			<g>
				<polygon class="st0" points="565.9,0.2 471.9,94.2 508.3,130.6 565.9,73.1 623.4,130.6 659.9,94.2 				"/>
			</g>
		</g>
	</g>
	<g>
		<polygon class="st1" points="336.4,344 451.5,344 451.5,391.2 506.5,391.2 506.5,294.7 336.4,294.7 		"/>
		<polygon class="st1" points="202.8,186.4 190.8,186.4 190.8,141.3 136.3,141.3 136.3,286.2 190.8,286.2 190.8,241.1 202.8,241.1 
			202.8,286.2 257.2,286.2 257.2,141.3 202.8,141.3 		"/>
		<polygon class="st1" points="451.8,141.3 451.8,164 434.6,164 434.6,207.4 451.8,207.4 451.8,220.1 434.6,220.1 434.6,263.5 
			451.8,263.5 451.8,286.2 506.5,286.2 506.5,141.3 		"/>
		<path class="st1" d="M0.2,141.3v49h69.7c0.1,0,0.2,0,0.2,0v46.9v49h54.3v-49v-46.9v-49h-8.6H0.2z"/>
		<path class="st1" d="M419.5,220.3c0-14.1-4.4-27.2-12-37.9h18.5l0-41.1l-45.1,0l0-18.3h-54.6v18.3l-45.1,0v41.1h18.5
			c-7.6,10.7-12,23.8-12,37.9c0,36.4,29.5,65.9,65.9,65.9C390,286.2,419.5,256.7,419.5,220.3z M334.2,220.3
			c0-10.7,8.7-19.4,19.4-19.4c10.7,0,19.4,8.7,19.4,19.4c0,10.7-8.7,19.4-19.4,19.4C342.9,239.7,334.2,231,334.2,220.3z"/>
	</g>
	<g>
		<g>
			<path class="st0" d="M39.2,50.8H1.5v-8.5h13.3v-6.1h11.1v6.1h13.3V50.8z M36.3,64.9c0,7.4-6.6,12.5-15.9,12.4
				c-9.4,0.1-16.1-5-16.1-12.4S11,52.3,20.4,52.3C29.7,52.3,36.3,57.4,36.3,64.9z M54.5,99H10.4V80.2h11.1v10h33V99z M15.1,64.9
				c0,2.9,2.1,4.1,5.2,4.1c3.2,0,5.4-1.2,5.4-4.1c0-2.9-2.2-4.2-5.4-4.3C17.2,60.7,15.1,62,15.1,64.9z M52.6,54.9h7.9v9h-7.9v19.9
				H41.5V36.3h11.1V54.9z"/>
			<path class="st0" d="M146.1,44.1c0,4.6,0,9.8-1.1,16.2h7.5V69h-23.6v7.4h17v23.4h-11V85H100v-8.5h17.7V69H94.3v-8.8h39.5
				c0.9-5,1.1-9,1.2-12.7h-33.8v-8.8h44.9V44.1z"/>
			<path class="st0" d="M225.3,76.9l0.8,7.9c-13.8,2.8-28.6,2.9-39.5,2.9l-1.2-8.8C196.5,78.9,212,78.7,225.3,76.9z M223.6,56.3
				c0,9.4-7.8,16.1-18,16.1c-10,0.1-18-6.7-18-16.1c0-9.3,8-16.1,18-16.1C215.9,40.1,223.6,47,223.6,56.3z M198.7,56.3
				c0,4.5,3.1,6.5,7,6.5c4.1,0,7.2-2.1,7.2-6.5c0-4.3-3.2-6.5-7.2-6.5C201.8,49.7,198.7,51.9,198.7,56.3z M239.5,100.1h-11V36.1h11
				V100.1z"/>
			<path class="st0" d="M316.1,79.3l0.7,8c-14.1,2.8-28.2,2.6-39.4,2.6l-1.4-9.1C287.5,81,302.6,81.1,316.1,79.3z M315.7,51.9h-38.4
				v-8.5h13.6v-6.5H302v6.5h13.6V51.9z M312.6,66c-0.1,7.2-6.6,12.2-16.1,12.2c-9.4,0-16.1-5-16-12.2c-0.1-7.4,6.6-12.3,16-12.3
				C305.9,53.7,312.5,58.6,312.6,66z M291,66c-0.1,2.7,2.1,3.9,5.5,3.9c3.2,0,5.4-1.2,5.4-3.9c0-2.7-2.2-3.9-5.4-3.9
				C293.1,62.1,290.9,63.3,291,66z M330.1,99.9h-11V36.1h11V99.9z"/>
			<path class="st0" d="M399.2,69.8h-31.3V40.7h31.3V69.8z M418.1,87c0,8.2-8.6,13.1-21.8,13.1c-13.5,0-22.3-4.9-22.3-13.1
				c-0.1-8.1,8.8-13,22.3-13C409.5,74,418.1,78.9,418.1,87z M378.9,60.9h9.4V49.3h-9.4V60.9z M385.1,87c0,3.2,3.7,4.4,11.2,4.4
				c7.4,0,10.8-1.2,10.8-4.4c0-3-3.4-4.3-10.8-4.3C388.9,82.7,385.1,84,385.1,87z M417.5,49.6h7.9v8.9h-7.9v14.2h-11.1V36.1h11.1
				V49.6z"/>
		</g>
	</g>
</g>
</svg>
